# xmcd CD database file
#
# Track frame offsets:
#	150
#	16335
#	30087
#	40482
#	51122
#	62740
#	73282
#	86770
#	95952
#	108130
#	121562
#	131665
#	146645
#	158485
#	168222
#	178675
#	193707
#	214417
#	224047
#	242242
#	251657
#
# Disc length: 3514 seconds
#
# Revision: 0
# Processed by: cddbd v1.4PL0 Copyright (c) Steve Scherf et al.
# Submitted via: CDex 1.50beta10
#
DISCID=350db815
DTITLE=The Beatles - The Beatles   Anthology
DYEAR=1900
DGENRE=misc
TTITLE0=The long and winding road
TTITLE1=The Ballead of John and Yoko
TTITLE2=If I feel
TTITLE3=Paperback writer
TTITLE4=Michelle
TTITLE5=She love you
TTITLE6=Penny lane
TTITLE7=All my loving
TTITLE8=When I'm sixty four
TTITLE9=Oblady Oblada
TTITLE10=I feel fine
TTITLE11=Get back
TTITLE12=Day tripper
TTITLE13=We can work it out
TTITLE14=No reply
TTITLE15=Lucy in the sky with diamond
TTITLE16=SGT.Pepper's lonely heart club band
TTITLE17=Norwegian wood
TTITLE18=My sweet lord
TTITLE19=Eleanor Rigby
TTITLE20=I sould have known better
EXTD=YEAR: 1900
EXTT0=
EXTT1=
EXTT2=
EXTT3=
EXTT4=
EXTT5=
EXTT6=
EXTT7=
EXTT8=
EXTT9=
EXTT10=
EXTT11=
EXTT12=
EXTT13=
EXTT14=
EXTT15=
EXTT16=
EXTT17=
EXTT18=
EXTT19=
EXTT20=
PLAYORDER=
